STARTFONT 2.1
FONT -sun-arioso-medium-r-normal--14-140-75-75-p-72-adobe-fontspecific
SIZE 14 75 75
FONTBOUNDINGBOX 18 16 -3 -3

STARTPROPERTIES 28
FOUNDRY "sun"
FAMILY_NAME "arioso"
WEIGHT_NAME "medium"
SLANT "r"
SETWIDTH_NAME "normal"
ADD_STYLE_NAME ""
PIXEL_SIZE 15
POINT_SIZE 140
RESOLUTION_X 75
RESOLUTION_Y 75
SPACING "p"
AVERAGE_WIDTH 72
CHARSET_REGISTRY "adobe"
CHARSET_ENCODING "fontspecific"
COPYRIGHT "© 1999 Sun Microsystems, Inc."
RAW_PIXELSIZE 1000
RAW_POINTSIZE 964
RAW_ASCENT 897
RAW_DESCENT 198
RAW_AVERAGE_WIDTH 4987
FACE_NAME "AriosoNormal"
_XMBDFED_INFO "Edited with xmbdfed 2.4."
WEIGHT 10
X_HEIGHT -1
QUAD_WIDTH 8
DEFAULT_CHAR 4
FONT_DESCENT 3
FONT_ASCENT 13
ENDPROPERTIES

CHARS 195

STARTCHAR char32
ENCODING 32
SWIDTH 18 0
DWIDTH 3 0
BBX 0 0 0 0
BITMAP
ENDCHAR

STARTCHAR char33
ENCODING 33
SWIDTH 30 0
DWIDTH 5 0
BBX 4 9 1 0
BITMAP
10
20
20
20
20
40
40
00
80
ENDCHAR

STARTCHAR char34
ENCODING 34
SWIDTH 30 0
DWIDTH 5 0
BBX 4 3 2 8
BITMAP
50
50
A0
ENDCHAR

STARTCHAR char35
ENCODING 35
SWIDTH 49 0
DWIDTH 8 0
BBX 8 11 0 0
BITMAP
12
12
14
7F
24
24
24
FE
24
28
28
ENDCHAR

STARTCHAR char36
ENCODING 36
SWIDTH 49 0
DWIDTH 8 0
BBX 7 12 0 -1
BITMAP
04
3E
26
28
28
10
18
14
14
94
78
20
ENDCHAR

STARTCHAR char37
ENCODING 37
SWIDTH 5 0
DWIDTH 11 0
BBX 10 9 0 0
BITMAP
3200
4A00
4A00
8C80
9540
6A40
0A40
1280
1300
ENDCHAR

STARTCHAR char38
ENCODING 38
SWIDTH 43 0
DWIDTH 7 0
BBX 7 8 0 0
BITMAP
1C
1C
18
2A
4A
8C
8C
F4
ENDCHAR

STARTCHAR char39
ENCODING 39
SWIDTH 18 0
DWIDTH 3 0
BBX 2 3 1 8
BITMAP
40
40
80
ENDCHAR

STARTCHAR char40
ENCODING 40
SWIDTH 30 0
DWIDTH 5 0
BBX 5 13 1 -2
BITMAP
08
08
10
20
20
40
40
80
80
80
80
80
80
ENDCHAR

STARTCHAR char41
ENCODING 41
SWIDTH 30 0
DWIDTH 5 0
BBX 5 13 -1 -2
BITMAP
08
08
08
08
08
08
10
10
30
20
20
40
80
ENDCHAR

STARTCHAR char42
ENCODING 42
SWIDTH 30 0
DWIDTH 5 0
BBX 5 5 1 6
BITMAP
10
50
38
F0
70
ENDCHAR

STARTCHAR char43
ENCODING 43
SWIDTH 55 0
DWIDTH 9 0
BBX 8 8 1 0
BITMAP
08
08
08
FF
08
08
08
08
ENDCHAR

STARTCHAR char44
ENCODING 44
SWIDTH 18 0
DWIDTH 3 0
BBX 2 3 0 -2
BITMAP
C0
40
80
ENDCHAR

STARTCHAR char45
ENCODING 45
SWIDTH 30 0
DWIDTH 5 0
BBX 4 1 0 2
BITMAP
F0
ENDCHAR

STARTCHAR char46
ENCODING 46
SWIDTH 18 0
DWIDTH 3 0
BBX 1 1 1 0
BITMAP
80
ENDCHAR

STARTCHAR char47
ENCODING 47
SWIDTH 43 0
DWIDTH 7 0
BBX 6 10 0 0
BITMAP
04
04
08
08
10
20
20
40
40
80
ENDCHAR

STARTCHAR char48
ENCODING 48
SWIDTH 43 0
DWIDTH 7 0
BBX 7 9 0 0
BITMAP
1C
24
42
42
84
84
84
88
F0
ENDCHAR

STARTCHAR char49
ENCODING 49
SWIDTH 43 0
DWIDTH 7 0
BBX 4 9 2 0
BITMAP
10
70
A0
20
20
40
40
80
80
ENDCHAR

STARTCHAR char50
ENCODING 50
SWIDTH 43 0
DWIDTH 7 0
BBX 7 9 0 0
BITMAP
1C
22
42
44
08
30
40
80
FC
ENDCHAR

STARTCHAR char51
ENCODING 51
SWIDTH 43 0
DWIDTH 7 0
BBX 6 9 0 0
BITMAP
18
04
04
08
18
08
08
08
F0
ENDCHAR

STARTCHAR char52
ENCODING 52
SWIDTH 43 0
DWIDTH 7 0
BBX 8 9 -1 0
BITMAP
01
02
0E
12
24
24
7F
08
08
ENDCHAR

STARTCHAR char53
ENCODING 53
SWIDTH 43 0
DWIDTH 7 0
BBX 7 9 0 0
BITMAP
1E
20
20
38
04
04
04
08
F0
ENDCHAR

STARTCHAR char54
ENCODING 54
SWIDTH 43 0
DWIDTH 7 0
BBX 7 9 0 0
BITMAP
04
08
10
38
44
C4
84
88
F8
ENDCHAR

STARTCHAR char55
ENCODING 55
SWIDTH 43 0
DWIDTH 7 0
BBX 6 9 1 0
BITMAP
30
CC
04
08
10
20
20
40
80
ENDCHAR

STARTCHAR char56
ENCODING 56
SWIDTH 43 0
DWIDTH 7 0
BBX 7 9 0 0
BITMAP
1C
22
22
1C
10
68
84
84
F8
ENDCHAR

STARTCHAR char57
ENCODING 57
SWIDTH 43 0
DWIDTH 7 0
BBX 7 10 0 -1
BITMAP
1C
22
42
46
44
78
10
20
40
80
ENDCHAR

STARTCHAR char58
ENCODING 58
SWIDTH 24 0
DWIDTH 4 0
BBX 2 5 1 0
BITMAP
40
00
00
00
80
ENDCHAR

STARTCHAR char59
ENCODING 59
SWIDTH 24 0
DWIDTH 4 0
BBX 3 7 0 -2
BITMAP
20
00
00
00
40
40
40
ENDCHAR

STARTCHAR char60
ENCODING 60
SWIDTH 55 0
DWIDTH 9 0
BBX 7 7 1 0
BITMAP
06
18
E0
80
60
1C
02
ENDCHAR

STARTCHAR char61
ENCODING 61
SWIDTH 55 0
DWIDTH 9 0
BBX 10 4 0 2
BITMAP
FFC0
0000
0000
FFC0
ENDCHAR

STARTCHAR char62
ENCODING 62
SWIDTH 55 0
DWIDTH 9 0
BBX 7 7 1 0
BITMAP
C0
30
0C
02
1C
60
80
ENDCHAR

STARTCHAR char63
ENCODING 63
SWIDTH 36 0
DWIDTH 6 0
BBX 5 10 1 0
BITMAP
30
48
48
50
20
40
80
40
00
80
ENDCHAR

STARTCHAR char64
ENCODING 64
SWIDTH 29 0
DWIDTH 15 0
BBX 11 11 2 0
BITMAP
0F00
3180
4040
4FA0
9120
A120
A340
B240
5F80
20C0
1F00
ENDCHAR

STARTCHAR char65
ENCODING 65
SWIDTH 17 0
DWIDTH 13 0
BBX 14 10 -1 0
BITMAP
0008
0038
0028
0030
0050
3FBC
40A0
8160
8240
7C78
ENDCHAR

STARTCHAR char66
ENCODING 66
SWIDTH 5 0
DWIDTH 11 0
BBX 11 10 -1 0
BITMAP
0FC0
3120
4120
82C0
82C0
8240
8420
0420
18C0
1F80
ENDCHAR

STARTCHAR char67
ENCODING 67
SWIDTH 49 0
DWIDTH 8 0
BBX 9 10 0 0
BITMAP
1F80
2080
4880
5080
A100
C200
E400
9800
8000
7E00
ENDCHAR

STARTCHAR char68
ENCODING 68
SWIDTH 17 0
DWIDTH 13 0
BBX 13 10 -1 0
BITMAP
0FF0
1088
2108
4108
8108
8208
8210
0220
04C0
0F00
ENDCHAR

STARTCHAR char69
ENCODING 69
SWIDTH 49 0
DWIDTH 8 0
BBX 8 10 0 0
BITMAP
07
09
0A
0A
30
40
81
81
82
7C
ENDCHAR

STARTCHAR char70
ENCODING 70
SWIDTH 17 0
DWIDTH 13 0
BBX 14 13 -1 -3
BITMAP
0FE0
3010
2010
4020
4040
83FC
80C0
8140
4180
0280
0280
0500
0600
ENDCHAR

STARTCHAR char71
ENCODING 71
SWIDTH 11 0
DWIDTH 12 0
BBX 13 13 -1 -3
BITMAP
03F0
0410
0820
1040
11A0
2620
3C20
6060
21C0
1E70
00C0
0300
0300
ENDCHAR

STARTCHAR char72
ENCODING 72
SWIDTH 17 0
DWIDTH 13 0
BBX 13 10 0 0
BITMAP
FF30
8270
82E0
0280
0508
1D08
2A08
4A10
9260
E380
ENDCHAR

STARTCHAR char73
ENCODING 73
SWIDTH 55 0
DWIDTH 9 0
BBX 10 10 -1 0
BITMAP
3FC0
6040
4040
0080
0080
0080
3F00
4100
8200
7C00
ENDCHAR

STARTCHAR char74
ENCODING 74
SWIDTH 55 0
DWIDTH 9 0
BBX 11 13 -1 -3
BITMAP
0FE0
1080
2080
4080
4100
8100
8100
8300
8E00
1200
2400
4800
7000
ENDCHAR

STARTCHAR char75
ENCODING 75
SWIDTH 17 0
DWIDTH 13 0
BBX 13 10 0 0
BITMAP
7F90
4090
0120
01C0
0380
0200
0200
0500
0880
F070
ENDCHAR

STARTCHAR char76
ENCODING 76
SWIDTH 5 0
DWIDTH 11 0
BBX 11 10 0 0
BITMAP
01E0
0220
0220
0440
0480
0500
0600
0800
FC00
E3C0
ENDCHAR

STARTCHAR char77
ENCODING 77
SWIDTH 29 0
DWIDTH 15 0
BBX 16 10 -1 0
BITMAP
0033
0055
009A
009A
0134
0134
012C
0248
0458
F88E
ENDCHAR

STARTCHAR char78
ENCODING 78
SWIDTH 17 0
DWIDTH 13 0
BBX 14 10 -1 0
BITMAP
0F00
30F8
2088
4310
8320
8520
8540
8640
0A40
0C3C
ENDCHAR

STARTCHAR char79
ENCODING 79
SWIDTH 55 0
DWIDTH 9 0
BBX 8 10 0 0
BITMAP
1F
31
51
41
81
81
82
82
84
78
ENDCHAR

STARTCHAR char80
ENCODING 80
SWIDTH 17 0
DWIDTH 13 0
BBX 14 13 -1 -3
BITMAP
07F0
1888
2104
4104
8204
8208
8208
8410
0460
0780
0800
0800
0800
ENDCHAR

STARTCHAR char81
ENCODING 81
SWIDTH 49 0
DWIDTH 8 0
BBX 9 12 0 -2
BITMAP
1E00
6100
4100
8100
8100
8200
8200
8C00
7000
FC00
0600
0380
ENDCHAR

STARTCHAR char82
ENCODING 82
SWIDTH 11 0
DWIDTH 12 0
BBX 13 10 -1 0
BITMAP
07F0
1110
2110
4210
8220
8460
8580
8600
0500
08F0
ENDCHAR

STARTCHAR char83
ENCODING 83
SWIDTH 49 0
DWIDTH 8 0
BBX 8 10 0 0
BITMAP
0F
11
12
18
08
04
7C
84
88
F8
ENDCHAR

STARTCHAR char84
ENCODING 84
SWIDTH 61 0
DWIDTH 10 0
BBX 14 11 -1 -1
BITMAP
3FFC
6020
4020
8040
8040
4040
2C80
1080
2100
2200
1C00
ENDCHAR

STARTCHAR char85
ENCODING 85
SWIDTH 17 0
DWIDTH 13 0
BBX 14 10 -1 0
BITMAP
078C
3888
2130
4130
8230
8260
84A0
4540
4A40
0C78
ENDCHAR

STARTCHAR char86
ENCODING 86
SWIDTH 17 0
DWIDTH 13 0
BBX 13 10 -1 0
BITMAP
0F88
1088
2108
4208
8208
8410
8410
8420
0460
0380
ENDCHAR

STARTCHAR char87
ENCODING 87
SWIDTH 29 0
DWIDTH 15 0
BBX 14 10 0 0
BITMAP
FF44
84C4
04C4
0584
0A84
0B04
1D08
1908
1930
19C0
ENDCHAR

STARTCHAR char88
ENCODING 88
SWIDTH 17 0
DWIDTH 13 0
BBX 15 10 -1 0
BITMAP
0F1E
30A0
40C0
4080
87E4
8104
8304
0508
1910
61F0
ENDCHAR

STARTCHAR char89
ENCODING 89
SWIDTH 11 0
DWIDTH 12 0
BBX 14 13 -1 -3
BITMAP
1F0C
2110
4230
8230
8660
8460
44A0
4940
0A70
0F80
0480
0900
0E00
ENDCHAR

STARTCHAR char90
ENCODING 90
SWIDTH 17 0
DWIDTH 13 0
BBX 13 10 -1 0
BITMAP
0FF8
0908
1110
1120
2140
22F0
2480
1B00
0400
7FF8
ENDCHAR

STARTCHAR char91
ENCODING 91
SWIDTH 30 0
DWIDTH 5 0
BBX 7 13 -1 -3
BITMAP
06
08
08
08
10
10
20
20
20
40
40
40
40
ENDCHAR

STARTCHAR char92
ENCODING 92
SWIDTH 24 0
DWIDTH 4 0
BBX 4 11 0 0
BITMAP
80
80
80
40
40
40
20
20
20
10
10
ENDCHAR

STARTCHAR char93
ENCODING 93
SWIDTH 30 0
DWIDTH 5 0
BBX 7 13 -2 -3
BITMAP
04
02
04
04
08
08
08
10
10
10
20
20
60
ENDCHAR

STARTCHAR char94
ENCODING 94
SWIDTH 0 0
DWIDTH 0 0
BBX 3 2 1 11
BITMAP
40
A0
ENDCHAR

STARTCHAR char95
ENCODING 95
SWIDTH 49 0
DWIDTH 8 0
BBX 8 1 0 -2
BITMAP
FF
ENDCHAR

STARTCHAR char96
ENCODING 96
SWIDTH 0 0
DWIDTH 0 0
BBX 2 2 -1 7
BITMAP
80
40
ENDCHAR

STARTCHAR char97
ENCODING 97
SWIDTH 43 0
DWIDTH 7 0
BBX 7 6 0 0
BITMAP
34
48
88
88
90
EE
ENDCHAR

STARTCHAR char98
ENCODING 98
SWIDTH 36 0
DWIDTH 6 0
BBX 6 10 0 0
BITMAP
10
20
20
20
70
68
68
B0
AC
C0
ENDCHAR

STARTCHAR char99
ENCODING 99
SWIDTH 30 0
DWIDTH 5 0
BBX 5 6 0 0
BITMAP
30
48
50
A0
80
F8
ENDCHAR

STARTCHAR char100
ENCODING 100
SWIDTH 36 0
DWIDTH 6 0
BBX 7 10 0 0
BITMAP
02
06
04
04
38
48
48
90
90
FE
ENDCHAR

STARTCHAR char101
ENCODING 101
SWIDTH 24 0
DWIDTH 4 0
BBX 4 6 0 0
BITMAP
30
50
A0
E0
80
F0
ENDCHAR

STARTCHAR char102
ENCODING 102
SWIDTH 30 0
DWIDTH 5 0
BBX 6 13 -1 -3
BITMAP
0C
0C
0C
14
18
18
70
E0
E0
78
40
C0
80
ENDCHAR

STARTCHAR char103
ENCODING 103
SWIDTH 43 0
DWIDTH 7 0
BBX 7 9 0 -3
BITMAP
34
48
88
88
90
FE
10
E0
C0
ENDCHAR

STARTCHAR char104
ENCODING 104
SWIDTH 36 0
DWIDTH 6 0
BBX 6 10 0 0
BITMAP
10
20
20
60
48
78
A8
D0
90
9C
ENDCHAR

STARTCHAR char105
ENCODING 105
SWIDTH 18 0
DWIDTH 3 0
BBX 3 8 0 0
BITMAP
20
00
40
40
40
80
80
E0
ENDCHAR

STARTCHAR char106
ENCODING 106
SWIDTH 24 0
DWIDTH 4 0
BBX 6 11 -1 -3
BITMAP
08
00
10
70
50
20
7C
A0
C0
C0
40
ENDCHAR

STARTCHAR char107
ENCODING 107
SWIDTH 36 0
DWIDTH 6 0
BBX 7 10 0 0
BITMAP
30
20
20
60
4C
74
B8
E0
A0
9E
ENDCHAR

STARTCHAR char108
ENCODING 108
SWIDTH 18 0
DWIDTH 3 0
BBX 4 10 0 0
BITMAP
10
20
20
20
40
40
40
80
80
E0
ENDCHAR

STARTCHAR char109
ENCODING 109
SWIDTH 61 0
DWIDTH 10 0
BBX 11 6 -1 0
BITMAP
2C80
5780
6A80
ED00
DD00
99C0
ENDCHAR

STARTCHAR char110
ENCODING 110
SWIDTH 36 0
DWIDTH 6 0
BBX 7 6 0 0
BITMAP
48
58
A8
D0
D0
9E
ENDCHAR

STARTCHAR char111
ENCODING 111
SWIDTH 36 0
DWIDTH 6 0
BBX 6 6 0 0
BITMAP
70
70
70
90
9C
E0
ENDCHAR

STARTCHAR char112
ENCODING 112
SWIDTH 43 0
DWIDTH 7 0
BBX 8 9 -1 -3
BITMAP
1C
72
52
A2
64
BF
40
40
80
ENDCHAR

STARTCHAR char113
ENCODING 113
SWIDTH 43 0
DWIDTH 7 0
BBX 7 9 0 -3
BITMAP
3C
48
48
88
90
FC
18
30
20
ENDCHAR

STARTCHAR char114
ENCODING 114
SWIDTH 30 0
DWIDTH 5 0
BBX 5 6 0 0
BITMAP
30
60
60
D0
C8
80
ENDCHAR

STARTCHAR char115
ENCODING 115
SWIDTH 30 0
DWIDTH 5 0
BBX 5 6 0 0
BITMAP
20
20
60
60
A0
F0
ENDCHAR

STARTCHAR char116
ENCODING 116
SWIDTH 24 0
DWIDTH 4 0
BBX 4 8 0 0
BITMAP
20
20
40
50
40
80
80
E0
ENDCHAR

STARTCHAR char117
ENCODING 117
SWIDTH 43 0
DWIDTH 7 0
BBX 7 6 0 0
BITMAP
48
48
48
50
90
FC
ENDCHAR

STARTCHAR char118
ENCODING 118
SWIDTH 36 0
DWIDTH 6 0
BBX 6 6 0 0
BITMAP
58
58
58
88
94
E0
ENDCHAR

STARTCHAR char119
ENCODING 119
SWIDTH 55 0
DWIDTH 9 0
BBX 11 6 -1 0
BITMAP
2580
2580
4980
C880
8B60
FC00
ENDCHAR

STARTCHAR char120
ENCODING 120
SWIDTH 43 0
DWIDTH 7 0
BBX 8 6 -1 0
BITMAP
33
CD
0E
78
58
EF
ENDCHAR

STARTCHAR char121
ENCODING 121
SWIDTH 36 0
DWIDTH 6 0
BBX 7 9 0 -3
BITMAP
48
48
48
90
90
EC
30
E0
C0
ENDCHAR

STARTCHAR char122
ENCODING 122
SWIDTH 30 0
DWIDTH 5 0
BBX 5 6 0 0
BITMAP
78
90
A0
40
80
F8
ENDCHAR

STARTCHAR char123
ENCODING 123
SWIDTH 30 0
DWIDTH 5 0
BBX 3 13 1 -3
BITMAP
60
40
40
40
40
80
80
40
40
40
40
40
20
ENDCHAR

STARTCHAR char124
ENCODING 124
SWIDTH 24 0
DWIDTH 4 0
BBX 1 11 1 0
BITMAP
80
80
80
80
80
80
80
80
80
80
80
ENDCHAR

STARTCHAR char125
ENCODING 125
SWIDTH 30 0
DWIDTH 5 0
BBX 3 13 1 -3
BITMAP
C0
40
40
40
40
20
20
40
40
40
40
40
80
ENDCHAR

STARTCHAR char126
ENCODING 126
SWIDTH 0 0
DWIDTH 0 0
BBX 5 2 0 11
BITMAP
68
B0
ENDCHAR

STARTCHAR char128
ENCODING 128
SWIDTH 49 0
DWIDTH 8 0
BBX 11 10 -2 0
BITMAP
07E0
0820
3800
F700
3C80
2200
2000
2000
2000
1F80
ENDCHAR

STARTCHAR char130
ENCODING 130
SWIDTH 18 0
DWIDTH 3 0
BBX 2 3 0 -2
BITMAP
40
40
80
ENDCHAR

STARTCHAR char131
ENCODING 131
SWIDTH 0 0
DWIDTH 0 0
BBX 3 2 1 11
BITMAP
40
A0
ENDCHAR

STARTCHAR char132
ENCODING 132
SWIDTH 30 0
DWIDTH 5 0
BBX 4 3 0 -2
BITMAP
F0
A0
A0
ENDCHAR

STARTCHAR char133
ENCODING 133
SWIDTH 29 0
DWIDTH 15 0
BBX 12 2 1 0
BITMAP
C630
C630
ENDCHAR

STARTCHAR char134
ENCODING 134
SWIDTH 30 0
DWIDTH 5 0
BBX 6 12 0 -2
BITMAP
08
10
10
FC
20
20
40
40
40
40
80
80
ENDCHAR

STARTCHAR char136
ENCODING 136
SWIDTH 0 0
DWIDTH 0 0
BBX 3 2 -1 7
BITMAP
40
A0
ENDCHAR

STARTCHAR char139
ENCODING 139
SWIDTH 30 0
DWIDTH 5 0
BBX 3 4 1 2
BITMAP
60
C0
C0
60
ENDCHAR

STARTCHAR char140
ENCODING 140
SWIDTH 29 0
DWIDTH 15 0
BBX 15 11 -1 0
BITMAP
000C
171A
1892
2894
4898
C0E0
8080
8102
8102
8304
7DF8
ENDCHAR

STARTCHAR char145
ENCODING 145
SWIDTH 18 0
DWIDTH 3 0
BBX 2 3 2 8
BITMAP
40
80
80
ENDCHAR

STARTCHAR char146
ENCODING 146
SWIDTH 18 0
DWIDTH 3 0
BBX 2 3 2 8
BITMAP
40
40
40
ENDCHAR

STARTCHAR char147
ENCODING 147
SWIDTH 30 0
DWIDTH 5 0
BBX 4 3 2 8
BITMAP
50
90
A0
ENDCHAR

STARTCHAR char148
ENCODING 148
SWIDTH 30 0
DWIDTH 5 0
BBX 4 3 2 8
BITMAP
50
50
90
ENDCHAR

STARTCHAR char149
ENCODING 149
SWIDTH 30 0
DWIDTH 5 0
BBX 4 4 0 3
BITMAP
60
F0
F0
60
ENDCHAR

STARTCHAR char150
ENCODING 150
SWIDTH 43 0
DWIDTH 7 0
BBX 6 1 0 2
BITMAP
FC
ENDCHAR

STARTCHAR char151
ENCODING 151
SWIDTH 55 0
DWIDTH 9 0
BBX 10 1 0 4
BITMAP
FFC0
ENDCHAR

STARTCHAR char152
ENCODING 152
SWIDTH 0 0
DWIDTH 0 0
BBX 4 1 -1 7
BITMAP
E0
ENDCHAR

STARTCHAR char153
ENCODING 153
SWIDTH 11 0
DWIDTH 12 0
BBX 11 6 0 4
BITMAP
FE20
AA60
2360
2360
23A0
66E0
ENDCHAR

STARTCHAR char155
ENCODING 155
SWIDTH 30 0
DWIDTH 5 0
BBX 3 4 1 2
BITMAP
C0
60
60
80
ENDCHAR

STARTCHAR char156
ENCODING 156
SWIDTH 49 0
DWIDTH 8 0
BBX 8 6 0 0
BITMAP
17
69
8A
8C
90
EF
ENDCHAR

STARTCHAR char159
ENCODING 159
SWIDTH 11 0
DWIDTH 12 0
BBX 14 15 -1 -3
BITMAP
0140
0000
1F0C
2110
4230
8230
8660
8460
44A0
4940
0A70
0F80
0480
0900
0E00
ENDCHAR

STARTCHAR char160
ENCODING 160
SWIDTH 18 0
DWIDTH 3 0
BBX 0 0 0 0
BITMAP
ENDCHAR

STARTCHAR char161
ENCODING 161
SWIDTH 30 0
DWIDTH 5 0
BBX 4 9 0 0
BITMAP
10
00
20
20
20
40
40
C0
40
ENDCHAR

STARTCHAR char162
ENCODING 162
SWIDTH 30 0
DWIDTH 5 0
BBX 5 8 0 -1
BITMAP
10
10
68
70
A0
A0
F8
40
ENDCHAR

STARTCHAR char163
ENCODING 163
SWIDTH 55 0
DWIDTH 9 0
BBX 10 10 0 0
BITMAP
0780
0840
0840
0800
3E00
0800
0800
0800
F800
FE00
ENDCHAR

STARTCHAR char164
ENCODING 164
SWIDTH 0 0
DWIDTH 0 0
BBX 3 2 1 11
BITMAP
20
40
ENDCHAR

STARTCHAR char165
ENCODING 165
SWIDTH 0 0
DWIDTH 0 0
BBX 4 2 1 11
BITMAP
B0
40
ENDCHAR

STARTCHAR char167
ENCODING 167
SWIDTH 36 0
DWIDTH 6 0
BBX 8 14 -1 -3
BITMAP
06
09
08
08
14
24
24
24
34
18
08
88
90
60
ENDCHAR

STARTCHAR char168
ENCODING 168
SWIDTH 0 0
DWIDTH 0 0
BBX 3 1 -1 7
BITMAP
A0
ENDCHAR

STARTCHAR char169
ENCODING 169
SWIDTH 5 0
DWIDTH 11 0
BBX 10 9 0 0
BITMAP
1F00
6080
5E40
B140
A040
A040
5E40
6180
1E00
ENDCHAR

STARTCHAR char170
ENCODING 170
SWIDTH 0 0
DWIDTH 0 0
BBX 3 1 1 11
BITMAP
A0
ENDCHAR

STARTCHAR char171
ENCODING 171
SWIDTH 36 0
DWIDTH 6 0
BBX 5 4 0 1
BITMAP
78
60
A0
50
ENDCHAR

STARTCHAR char172
ENCODING 172
SWIDTH 61 0
DWIDTH 10 0
BBX 9 4 0 0
BITMAP
FF80
0080
0080
0080
ENDCHAR

STARTCHAR char174
ENCODING 174
SWIDTH 5 0
DWIDTH 11 0
BBX 10 9 0 0
BITMAP
1E00
7D80
5240
9240
9C40
9640
5B40
6080
1F00
ENDCHAR

STARTCHAR char176
ENCODING 176
SWIDTH 18 0
DWIDTH 3 0
BBX 5 5 1 5
BITMAP
20
50
88
C8
30
ENDCHAR

STARTCHAR char177
ENCODING 177
SWIDTH 49 0
DWIDTH 8 0
BBX 7 9 0 0
BITMAP
10
10
10
FE
10
10
10
00
FE
ENDCHAR

STARTCHAR char180
ENCODING 180
SWIDTH 0 0
DWIDTH 0 0
BBX 2 2 0 7
BITMAP
40
80
ENDCHAR

STARTCHAR char182
ENCODING 182
SWIDTH 61 0
DWIDTH 10 0
BBX 7 12 1 -2
BITMAP
3E
64
E4
E4
64
24
24
24
24
24
24
24
ENDCHAR

STARTCHAR char183
ENCODING 183
SWIDTH 12 0
DWIDTH 2 0
BBX 1 1 1 4
BITMAP
80
ENDCHAR

STARTCHAR char184
ENCODING 184
SWIDTH 0 0
DWIDTH 0 0
BBX 3 4 -3 -3
BITMAP
60
60
60
80
ENDCHAR

STARTCHAR char186
ENCODING 186
SWIDTH 0 0
DWIDTH 0 0
BBX 5 2 0 11
BITMAP
68
B0
ENDCHAR

STARTCHAR char187
ENCODING 187
SWIDTH 36 0
DWIDTH 6 0
BBX 5 4 0 1
BITMAP
50
50
50
A0
ENDCHAR

STARTCHAR char191
ENCODING 191
SWIDTH 36 0
DWIDTH 6 0
BBX 5 9 0 0
BITMAP
08
00
18
08
10
60
90
90
E0
ENDCHAR

STARTCHAR char192
ENCODING 192
SWIDTH 17 0
DWIDTH 13 0
BBX 14 13 -1 0
BITMAP
0180
0080
0000
0018
0018
0028
0030
0050
3FBC
40A0
8160
8240
7C78
ENDCHAR

STARTCHAR char193
ENCODING 193
SWIDTH 17 0
DWIDTH 13 0
BBX 14 13 -1 0
BITMAP
0060
0040
0000
0018
0018
0028
0030
0050
3FBC
40A0
8160
8240
7C78
ENDCHAR

STARTCHAR char194
ENCODING 194
SWIDTH 17 0
DWIDTH 13 0
BBX 14 13 -1 0
BITMAP
0040
00C0
0000
0018
0018
0028
0030
0050
3FBC
40A0
8160
8240
7C78
ENDCHAR

STARTCHAR char195
ENCODING 195
SWIDTH 17 0
DWIDTH 13 0
BBX 14 13 -1 0
BITMAP
0090
0160
0000
0018
0018
0028
0030
0050
3FBC
40A0
8160
8240
7C78
ENDCHAR

STARTCHAR char196
ENCODING 196
SWIDTH 17 0
DWIDTH 13 0
BBX 14 12 -1 0
BITMAP
0014
0000
0018
0018
0028
0030
0050
3FAC
40A0
8160
8240
7C78
ENDCHAR

STARTCHAR char197
ENCODING 197
SWIDTH 17 0
DWIDTH 13 0
BBX 14 13 -1 0
BITMAP
000C
000C
000C
0018
0018
0028
0030
0050
3FBC
40A0
8160
8240
7C78
ENDCHAR

STARTCHAR char198
ENCODING 198
SWIDTH 36 0
DWIDTH 16 0
BBX 16 11 -1 0
BITMAP
0016
007D
0079
00AA
00EC
0178
1FC0
62C1
8281
8482
F87C
ENDCHAR

STARTCHAR char199
ENCODING 199
SWIDTH 49 0
DWIDTH 8 0
BBX 9 13 0 -3
BITMAP
1F80
2080
4880
5080
A100
C200
E400
9800
8000
7E00
2000
2000
4000
ENDCHAR

STARTCHAR char200
ENCODING 200
SWIDTH 49 0
DWIDTH 8 0
BBX 8 13 0 0
BITMAP
0C
02
00
07
09
0A
0A
30
40
81
81
82
7C
ENDCHAR

STARTCHAR char201
ENCODING 201
SWIDTH 49 0
DWIDTH 8 0
BBX 8 13 0 0
BITMAP
03
04
00
07
09
0A
0A
30
40
81
81
82
7C
ENDCHAR

STARTCHAR char202
ENCODING 202
SWIDTH 49 0
DWIDTH 8 0
BBX 8 13 0 0
BITMAP
06
06
00
07
09
0A
0A
30
40
C1
81
82
7C
ENDCHAR

STARTCHAR char203
ENCODING 203
SWIDTH 49 0
DWIDTH 8 0
BBX 8 12 0 0
BITMAP
09
00
0F
09
0A
0A
30
40
81
81
82
7C
ENDCHAR

STARTCHAR char204
ENCODING 204
SWIDTH 55 0
DWIDTH 9 0
BBX 10 13 -1 0
BITMAP
0200
0100
0000
3FC0
6040
4040
0080
0080
0080
3F00
4100
8200
7C00
ENDCHAR

STARTCHAR char205
ENCODING 205
SWIDTH 55 0
DWIDTH 9 0
BBX 10 13 -1 0
BITMAP
0080
0100
0000
3FC0
6040
4040
0080
0080
0080
3F00
4100
8200
7C00
ENDCHAR

STARTCHAR char206
ENCODING 206
SWIDTH 55 0
DWIDTH 9 0
BBX 10 13 -1 0
BITMAP
0100
0280
0000
3FC0
6040
4040
0080
0080
0080
3F00
4100
8200
7C00
ENDCHAR

STARTCHAR char207
ENCODING 207
SWIDTH 55 0
DWIDTH 9 0
BBX 10 12 -1 0
BITMAP
0280
0000
3FC0
6040
4040
0040
0080
0080
3F00
4100
8200
7C00
ENDCHAR

STARTCHAR char209
ENCODING 209
SWIDTH 17 0
DWIDTH 13 0
BBX 14 13 -1 0
BITMAP
0050
01E0
0000
0F18
30E8
2088
4310
8320
8520
8540
8640
0A40
0C3C
ENDCHAR

STARTCHAR char210
ENCODING 210
SWIDTH 55 0
DWIDTH 9 0
BBX 8 13 0 0
BITMAP
04
02
00
1F
31
51
41
81
81
82
82
84
78
ENDCHAR

STARTCHAR char211
ENCODING 211
SWIDTH 55 0
DWIDTH 9 0
BBX 8 13 0 0
BITMAP
03
02
00
1F
31
51
41
81
81
82
82
84
78
ENDCHAR

STARTCHAR char212
ENCODING 212
SWIDTH 55 0
DWIDTH 9 0
BBX 8 13 0 0
BITMAP
02
05
00
1F
31
51
41
81
81
82
82
84
78
ENDCHAR

STARTCHAR char213
ENCODING 213
SWIDTH 55 0
DWIDTH 9 0
BBX 9 13 0 0
BITMAP
0780
0A00
0000
1F00
3100
5100
4100
8100
8100
8200
8200
8400
7800
ENDCHAR

STARTCHAR char214
ENCODING 214
SWIDTH 55 0
DWIDTH 9 0
BBX 8 12 0 0
BITMAP
0A
00
1F
31
51
41
81
83
82
82
84
78
ENDCHAR

STARTCHAR char216
ENCODING 216
SWIDTH 55 0
DWIDTH 9 0
BBX 9 10 0 0
BITMAP
1F00
3280
5480
5480
8980
9180
A300
E200
4400
F800
ENDCHAR

STARTCHAR char217
ENCODING 217
SWIDTH 17 0
DWIDTH 13 0
BBX 14 13 -1 0
BITMAP
0180
0080
0000
0788
3888
2130
4130
8230
8260
84A0
4540
4A40
0C78
ENDCHAR

STARTCHAR char218
ENCODING 218
SWIDTH 17 0
DWIDTH 13 0
BBX 14 13 -1 0
BITMAP
0060
0080
0000
0788
3888
2130
4130
8230
8260
84A0
4540
4A40
0C78
ENDCHAR

STARTCHAR char219
ENCODING 219
SWIDTH 17 0
DWIDTH 13 0
BBX 14 13 -1 0
BITMAP
00C0
00C0
0000
0788
3888
2130
4130
8230
8260
84A0
4540
4A40
0C78
ENDCHAR

STARTCHAR char220
ENCODING 220
SWIDTH 17 0
DWIDTH 13 0
BBX 13 12 -1 0
BITMAP
0048
0000
0788
3888
2110
4130
8230
8260
84A0
4540
4A40
0C78
ENDCHAR

STARTCHAR char223
ENCODING 223
SWIDTH 49 0
DWIDTH 8 0
BBX 8 12 -1 -2
BITMAP
06
0A
0A
14
1C
24
22
22
7E
FD
40
80
ENDCHAR

STARTCHAR char224
ENCODING 224
SWIDTH 43 0
DWIDTH 7 0
BBX 7 9 0 0
BITMAP
10
10
00
3C
48
88
88
90
EE
ENDCHAR

STARTCHAR char225
ENCODING 225
SWIDTH 43 0
DWIDTH 7 0
BBX 7 9 0 0
BITMAP
08
10
00
3C
48
88
88
90
EE
ENDCHAR

STARTCHAR char226
ENCODING 226
SWIDTH 43 0
DWIDTH 7 0
BBX 7 9 0 0
BITMAP
18
28
00
3C
48
88
88
90
EE
ENDCHAR

STARTCHAR char227
ENCODING 227
SWIDTH 43 0
DWIDTH 7 0
BBX 7 8 0 0
BITMAP
38
00
3C
48
88
88
90
EE
ENDCHAR

STARTCHAR char228
ENCODING 228
SWIDTH 43 0
DWIDTH 7 0
BBX 7 8 0 0
BITMAP
24
00
3A
44
88
88
B0
DE
ENDCHAR

STARTCHAR char229
ENCODING 229
SWIDTH 43 0
DWIDTH 7 0
BBX 7 9 0 0
BITMAP
1C
14
1C
3C
48
88
88
90
EE
ENDCHAR

STARTCHAR char230
ENCODING 230
SWIDTH 49 0
DWIDTH 8 0
BBX 8 6 0 0
BITMAP
17
69
8A
8C
90
EF
ENDCHAR

STARTCHAR char231
ENCODING 231
SWIDTH 30 0
DWIDTH 5 0
BBX 5 9 0 -3
BITMAP
10
68
50
90
80
F8
C0
40
80
ENDCHAR

STARTCHAR char232
ENCODING 232
SWIDTH 24 0
DWIDTH 4 0
BBX 4 9 0 0
BITMAP
40
20
00
30
50
A0
E0
80
F0
ENDCHAR

STARTCHAR char233
ENCODING 233
SWIDTH 24 0
DWIDTH 4 0
BBX 4 9 0 0
BITMAP
10
30
00
30
50
A0
E0
80
F0
ENDCHAR

STARTCHAR char234
ENCODING 234
SWIDTH 24 0
DWIDTH 4 0
BBX 4 9 0 0
BITMAP
30
50
00
30
50
A0
E0
80
F0
ENDCHAR

STARTCHAR char235
ENCODING 235
SWIDTH 24 0
DWIDTH 4 0
BBX 4 8 0 0
BITMAP
50
00
30
50
A0
E0
80
F0
ENDCHAR

STARTCHAR char236
ENCODING 236
SWIDTH 18 0
DWIDTH 3 0
BBX 3 9 0 0
BITMAP
C0
40
00
40
40
40
80
80
E0
ENDCHAR

STARTCHAR char237
ENCODING 237
SWIDTH 18 0
DWIDTH 3 0
BBX 4 9 0 0
BITMAP
20
20
00
40
40
40
80
80
E0
ENDCHAR

STARTCHAR char238
ENCODING 238
SWIDTH 18 0
DWIDTH 3 0
BBX 3 9 0 0
BITMAP
20
60
00
40
40
40
80
80
E0
ENDCHAR

STARTCHAR char239
ENCODING 239
SWIDTH 18 0
DWIDTH 3 0
BBX 3 8 0 0
BITMAP
A0
00
40
40
40
80
80
C0
ENDCHAR

STARTCHAR char241
ENCODING 241
SWIDTH 36 0
DWIDTH 6 0
BBX 7 8 0 0
BITMAP
38
00
48
58
A8
D0
D0
9E
ENDCHAR

STARTCHAR char242
ENCODING 242
SWIDTH 36 0
DWIDTH 6 0
BBX 6 9 0 0
BITMAP
20
30
00
78
68
68
98
94
E0
ENDCHAR

STARTCHAR char243
ENCODING 243
SWIDTH 36 0
DWIDTH 6 0
BBX 6 9 0 0
BITMAP
18
10
00
78
68
68
98
94
E0
ENDCHAR

STARTCHAR char244
ENCODING 244
SWIDTH 36 0
DWIDTH 6 0
BBX 6 9 0 0
BITMAP
18
28
00
78
68
68
98
94
E0
ENDCHAR

STARTCHAR char245
ENCODING 245
SWIDTH 36 0
DWIDTH 6 0
BBX 6 8 0 0
BITMAP
78
00
78
68
68
98
94
E0
ENDCHAR

STARTCHAR char246
ENCODING 246
SWIDTH 36 0
DWIDTH 6 0
BBX 6 8 0 0
BITMAP
28
00
78
68
68
98
94
E0
ENDCHAR

STARTCHAR char247
ENCODING 247
SWIDTH 49 0
DWIDTH 8 0
BBX 7 5 0 1
BITMAP
30
30
FE
30
30
ENDCHAR

STARTCHAR char248
ENCODING 248
SWIDTH 36 0
DWIDTH 6 0
BBX 6 8 0 -1
BITMAP
14
68
78
A8
D8
D0
E0
80
ENDCHAR

STARTCHAR char249
ENCODING 249
SWIDTH 43 0
DWIDTH 7 0
BBX 7 9 0 0
BITMAP
20
10
00
48
48
48
50
90
FC
ENDCHAR

STARTCHAR char250
ENCODING 250
SWIDTH 43 0
DWIDTH 7 0
BBX 7 9 0 0
BITMAP
08
10
00
48
48
48
50
90
FC
ENDCHAR

STARTCHAR char251
ENCODING 251
SWIDTH 43 0
DWIDTH 7 0
BBX 7 9 0 0
BITMAP
10
18
00
48
48
48
50
90
FC
ENDCHAR

STARTCHAR char252
ENCODING 252
SWIDTH 43 0
DWIDTH 7 0
BBX 7 8 0 0
BITMAP
28
00
48
48
48
50
90
FC
ENDCHAR

STARTCHAR char255
ENCODING 255
SWIDTH 36 0
DWIDTH 6 0
BBX 7 11 0 -3
BITMAP
28
00
48
48
48
90
90
FC
10
E0
C0
ENDCHAR
ENDFONT
